<svg xmlns="http://www.w3.org/2000/svg" width="31" height="30" fill="none"><path fill="#283681" d="M15.191 0C6.8 0 0 6.714 0 15s6.8 15 15.191 15c8.391 0 15.191-6.714 15.191-15s-6.8-15-15.191-15zm6.517 16.429h-2.17c-.768 0-1.504.3-2.046.836a2.839 2.839 0 0 0-.848 2.02h-2.893a2.84 2.84 0 0 0-.848-2.02 2.913 2.913 0 0 0-2.046-.836h-2.17a5.835 5.835 0 0 1-3.544-1.197 5.71 5.71 0 0 1-2.06-3.09H6.18c.254.435.62.796 1.059 1.047.44.25.939.382 1.447.382h2.17c.82 0 1.633.171 2.381.505a5.775 5.775 0 0 1 1.96 1.43 5.773 5.773 0 0 1 1.958-1.43 5.84 5.84 0 0 1 2.381-.505h2.17a2.92 2.92 0 0 0 1.448-.382 2.88 2.88 0 0 0 1.059-1.046h3.098a5.714 5.714 0 0 1-2.06 3.089 5.84 5.84 0 0 1-3.545 1.197h.002z"/></svg>