<svg xmlns="http://www.w3.org/2000/svg" width="299" height="53" fill="none"><path fill="#fff" d="M192.607 34.578v4.542h-18.74V13.882h5.021v20.696h13.719zM67.784 13.882V39.12h12.552c3.33 0 6.522-1.33 8.876-3.696a12.653 12.653 0 0 0 3.677-8.923c0-3.346-1.323-6.556-3.677-8.923a12.519 12.519 0 0 0-8.876-3.696H67.784zm11.712 20.2h-6.699v-15.16h6.696a7.51 7.51 0 0 1 5.325 2.218 7.592 7.592 0 0 1 2.206 5.354 7.592 7.592 0 0 1-2.206 5.354 7.512 7.512 0 0 1-5.325 2.217l.003.017zm219.445-8.818a12.823 12.823 0 0 0-4.109-8.23 12.694 12.694 0 0 0-8.541-3.325 12.694 12.694 0 0 0-9.011 3.748 12.82 12.82 0 0 0-3.727 9.045c.001 2.86.956 5.637 2.712 7.888a12.72 12.72 0 0 0 6.975 4.527c2.762.683 5.673.416 8.267-.76a12.755 12.755 0 0 0 6.042-5.724h-5.862a7.487 7.487 0 0 1-5.207 2.309 7.48 7.48 0 0 1-5.679-2.388 8.306 8.306 0 0 1-1.675-2.603l-.139-.347h19.683a12.944 12.944 0 0 0 .271-4.14zm-5.225.227h-15.158l.03-.279a7.785 7.785 0 0 1 2.514-4.956 7.71 7.71 0 0 1 5.99-1.954 7.718 7.718 0 0 1 4.652 2.233 7.792 7.792 0 0 1 2.222 4.677l.029.279h-.279zm-123.367-.227a12.818 12.818 0 0 0-4.108-8.23 12.691 12.691 0 0 0-8.54-3.325 12.698 12.698 0 0 0-9.012 3.748 12.821 12.821 0 0 0-3.728 9.045c.002 2.86.958 5.636 2.714 7.887a12.72 12.72 0 0 0 6.974 4.526c2.763.683 5.674.415 8.267-.76a12.754 12.754 0 0 0 6.042-5.724h-5.862a7.487 7.487 0 0 1-5.207 2.31 7.48 7.48 0 0 1-5.679-2.388 8.26 8.26 0 0 1-1.674-2.603l-.14-.347h19.683a12.884 12.884 0 0 0 .27-4.14zm-5.224.227h-15.158l.029-.279a7.785 7.785 0 0 1 2.515-4.956 7.712 7.712 0 0 1 5.991-1.954 7.713 7.713 0 0 1 4.651 2.233 7.786 7.786 0 0 1 2.222 4.677l.029.279h-.279zm-44.717-.227a12.82 12.82 0 0 0-4.108-8.229 12.693 12.693 0 0 0-8.54-3.326 12.695 12.695 0 0 0-9.013 3.748 12.817 12.817 0 0 0-3.727 9.045 12.84 12.84 0 0 0 2.713 7.888 12.717 12.717 0 0 0 6.974 4.527 12.66 12.66 0 0 0 8.268-.76 12.757 12.757 0 0 0 6.041-5.724h-5.862a7.487 7.487 0 0 1-5.207 2.309 7.482 7.482 0 0 1-5.679-2.388 8.26 8.26 0 0 1-1.673-2.603l-.14-.348h19.683a12.943 12.943 0 0 0 .27-4.14zm-5.224.227h-15.159l.03-.279a7.786 7.786 0 0 1 2.515-4.956 7.706 7.706 0 0 1 10.642.28 7.79 7.79 0 0 1 2.221 4.676l.029.279h-.278zm30.097-11.609-7.532 25.238h-10.042l-7.531-25.238h5.69l6.863 23 6.862-23h5.69zm72.757 0V39.12h-5.021V29.025h-11.259V39.12h-5.021V13.882h5.021v10.096h11.259V13.882h5.021zm50.811 2.585a8.74 8.74 0 0 0-6.213-2.585h-12.553V39.12h5.021v-7.571h7.532a8.752 8.752 0 0 0 4.882-1.488 8.823 8.823 0 0 0 3.237-3.964 8.88 8.88 0 0 0 .501-5.105 8.842 8.842 0 0 0-2.406-4.523l-.001-.001zm-3.739 9.367a4.388 4.388 0 0 1-3.103 1.297h-6.904v-8.833h6.904c.868 0 1.717.26 2.439.746a4.412 4.412 0 0 1 1.617 1.982 4.436 4.436 0 0 1-.953 4.812v-.004zm-30.935-12.38c-2.566 0-5.075.765-7.208 2.199a13.028 13.028 0 0 0-4.779 5.853 13.104 13.104 0 0 0-.738 7.537 13.063 13.063 0 0 0 3.551 6.678 12.956 12.956 0 0 0 6.643 3.569 12.91 12.91 0 0 0 7.497-.743 12.984 12.984 0 0 0 5.822-4.804 13.09 13.09 0 0 0 2.186-7.247c0-3.46-1.367-6.777-3.8-9.223a12.94 12.94 0 0 0-9.174-3.82v.001zm0 21.034a7.93 7.93 0 0 1-4.49-1.108 7.986 7.986 0 0 1-3.121-3.428 8.042 8.042 0 0 1 1.256-8.806 7.958 7.958 0 0 1 3.953-2.408 7.925 7.925 0 0 1 4.619.205 7.962 7.962 0 0 1 3.727 2.75 8.035 8.035 0 0 1 1.59 4.8 7.814 7.814 0 0 1-2.122 5.565 7.731 7.731 0 0 1-5.412 2.43zM26.876 0C12.03 0 0 11.862 0 26.5S12.03 53 26.876 53c14.846 0 26.877-11.862 26.877-26.5S41.723 0 26.876 0zm11.53 29.024h-3.84a5.158 5.158 0 0 0-3.619 1.478c-.96.947-1.5 2.23-1.5 3.57h-5.119c0-1.34-.54-2.623-1.5-3.57a5.156 5.156 0 0 0-3.62-1.478H15.37c-2.27 0-4.476-.744-6.27-2.114a10.087 10.087 0 0 1-3.644-5.458h5.478a5.084 5.084 0 0 0 1.873 1.848 5.175 5.175 0 0 0 2.56.676h3.84a10.32 10.32 0 0 1 4.213.892 10.196 10.196 0 0 1 3.465 2.525 10.209 10.209 0 0 1 3.466-2.525 10.34 10.34 0 0 1 4.213-.892h3.84c.899 0 1.782-.233 2.56-.676a5.083 5.083 0 0 0 1.874-1.848h5.482a10.094 10.094 0 0 1-3.647 5.457 10.34 10.34 0 0 1-6.27 2.115h.003z"/></svg>