<svg xmlns="http://www.w3.org/2000/svg" width="169" height="30" fill="none"><path fill="#283681" d="M108.865 19.572v2.572H98.273V7.858h2.838v11.714h7.754zM38.313 7.858v14.286h7.094a7.07 7.07 0 0 0 5.017-2.092A7.167 7.167 0 0 0 52.502 15a7.168 7.168 0 0 0-2.078-5.051 7.071 7.071 0 0 0-5.017-2.092h-7.094zm6.62 11.433h-3.787v-8.58h3.785c1.129 0 2.211.451 3.01 1.255a4.3 4.3 0 0 1 1.247 3.03 4.3 4.3 0 0 1-1.247 3.03 4.242 4.242 0 0 1-3.01 1.256l.002.01zM168.966 14.3a7.261 7.261 0 0 0-2.322-4.658 7.167 7.167 0 0 0-5.531-1.848 7.173 7.173 0 0 0-4.39 2.087 7.263 7.263 0 0 0-2.106 5.12 7.27 7.27 0 0 0 1.533 4.465 7.185 7.185 0 0 0 3.942 2.563 7.148 7.148 0 0 0 4.673-.43 7.215 7.215 0 0 0 3.415-3.241h-3.314a4.224 4.224 0 0 1-6.152-.044 4.698 4.698 0 0 1-.947-1.474l-.079-.196h11.125a7.325 7.325 0 0 0 .153-2.344zm-2.952.129h-8.568l.017-.158a4.408 4.408 0 0 1 1.421-2.806 4.352 4.352 0 0 1 6.015.159 4.416 4.416 0 0 1 1.256 2.647l.016.158h-.157zm-69.73-.129a7.26 7.26 0 0 0-2.322-4.658 7.167 7.167 0 0 0-5.53-1.848c-1.66.163-3.212.9-4.39 2.087A7.26 7.26 0 0 0 81.934 15a7.273 7.273 0 0 0 1.534 4.464 7.188 7.188 0 0 0 3.942 2.562 7.147 7.147 0 0 0 4.673-.43 7.213 7.213 0 0 0 3.415-3.24h-3.313a4.225 4.225 0 0 1-6.153-.044 4.68 4.68 0 0 1-.947-1.474l-.078-.196H96.13a7.27 7.27 0 0 0 .153-2.343zm-2.952.129h-8.568l.016-.158a4.411 4.411 0 0 1 1.422-2.806 4.355 4.355 0 0 1 3.386-1.106 4.36 4.36 0 0 1 2.63 1.265 4.413 4.413 0 0 1 1.255 2.647l.016.158h-.157zM68.057 14.3a7.261 7.261 0 0 0-2.322-4.658 7.168 7.168 0 0 0-5.532-1.848 7.17 7.17 0 0 0-4.39 2.087A7.26 7.26 0 0 0 53.708 15a7.272 7.272 0 0 0 1.533 4.465 7.189 7.189 0 0 0 3.942 2.563 7.148 7.148 0 0 0 4.673-.43 7.212 7.212 0 0 0 3.415-3.241h-3.313a4.225 4.225 0 0 1-6.153-.044 4.68 4.68 0 0 1-.946-1.474l-.08-.197h11.126a7.352 7.352 0 0 0 .153-2.343zm-2.953.129h-8.568l.017-.158a4.41 4.41 0 0 1 1.421-2.806 4.353 4.353 0 0 1 6.015.159 4.412 4.412 0 0 1 1.256 2.647l.016.158h-.157zm17.011-6.571-4.257 14.286h-5.676L67.925 7.858h3.216l3.88 13.018 3.878-13.018h3.216zm41.124 0v14.286h-2.838v-5.715h-6.364v5.715h-2.838V7.858h2.838v5.714h6.364V7.858h2.838zm28.719 1.462a4.934 4.934 0 0 0-3.512-1.462h-7.095v14.285h2.838v-4.286h4.257c.983 0 1.943-.293 2.76-.842a4.993 4.993 0 0 0 1.83-2.244 5.028 5.028 0 0 0-1.077-5.45h-.001zm-2.113 5.303a2.48 2.48 0 0 1-1.754.734h-3.902v-5h3.902c.491 0 .971.148 1.379.422a2.512 2.512 0 0 1 .375 3.846v-.002zM132.36 7.616a7.3 7.3 0 0 0-4.075 1.244 7.37 7.37 0 0 0-2.7 3.314 7.421 7.421 0 0 0 1.589 8.046 7.322 7.322 0 0 0 3.755 2.02 7.29 7.29 0 0 0 4.238-.42 7.343 7.343 0 0 0 3.29-2.72 7.418 7.418 0 0 0-.912-9.322 7.307 7.307 0 0 0-5.185-2.163zm0 11.906a4.478 4.478 0 0 1-2.538-.627 4.55 4.55 0 0 1-1.054-6.925 4.474 4.474 0 0 1 4.845-1.247 4.5 4.5 0 0 1 2.106 1.557 4.55 4.55 0 0 1 .899 2.717 4.427 4.427 0 0 1-1.199 3.15 4.37 4.37 0 0 1-3.059 1.375zM15.191 0C6.8 0 0 6.714 0 15s6.8 15 15.191 15c8.391 0 15.191-6.714 15.191-15s-6.8-15-15.191-15zm6.517 16.429h-2.17c-.768 0-1.504.3-2.046.836a2.839 2.839 0 0 0-.848 2.02h-2.893a2.84 2.84 0 0 0-.848-2.02 2.913 2.913 0 0 0-2.046-.836h-2.17a5.835 5.835 0 0 1-3.544-1.197 5.71 5.71 0 0 1-2.06-3.09H6.18c.254.435.62.796 1.059 1.047.44.25.939.382 1.447.382h2.17c.82 0 1.633.171 2.381.505a5.775 5.775 0 0 1 1.96 1.43 5.773 5.773 0 0 1 1.958-1.43 5.84 5.84 0 0 1 2.381-.505h2.17a2.92 2.92 0 0 0 1.448-.382 2.88 2.88 0 0 0 1.059-1.046h3.098a5.714 5.714 0 0 1-2.06 3.089 5.84 5.84 0 0 1-3.545 1.197h.002z"/></svg>